<?xml version="1.0" encoding="utf-8"?>
<!-- Generator: Adobe Illustrator 25.0.0, SVG Export Plug-In . SVG Version: 6.00 Build 0)  -->
<svg version="1.1" id="Layer_1" xmlns="http://www.w3.org/2000/svg" xmlns:xlink="http://www.w3.org/1999/xlink" x="0px" y="0px"
	 viewBox="0 0 231.4 43.6" style="enable-background:new 0 0 231.4 43.6;" xml:space="preserve">
<style type="text/css">
	.st0{fill:#7F8A92;}
</style>
<path class="st0" d="M226.9,6.2c-0.2-0.2-0.4-0.3-0.7-0.3c-1.1,0.1-6.4,0.9-7,5.9c0,0.1,0,0.2,0.1,0.4c-0.2,0.3-0.5,0.5-0.7,0.8
	c-0.2-0.3-0.5-0.6-0.7-0.8c0.1-0.1,0.1-0.2,0.1-0.4c-0.6-5-6-5.8-7-5.9c-0.3,0-0.5,0.1-0.7,0.3c-0.2,0.2-0.2,0.5-0.2,0.7l0,0
	c0.3,1,1.9,5.8,6.6,5.8c0.2,0,0.3,0,0.5,0c0.1,0,0.1,0,0.2-0.1c0.3,0.3,0.5,0.6,0.8,1c-0.7,1-1.3,2.3-1.7,3.9
	c-0.1,0.2,0.1,0.4,0.3,0.5c0,0,0.1,0,0.1,0c0.2,0,0.3-0.1,0.4-0.3c0.6-2.3,1.6-3.9,2.7-5c0.1,0,0.1,0,0.2,0.1c0.2,0,0.3,0,0.5,0
	c4.7,0,6.3-4.8,6.6-5.8l0,0C227.1,6.7,227.1,6.4,226.9,6.2z M210.8,6.7l-0.4,0.1L210.8,6.7c0.9,0.1,5.4,0.7,6.3,4.6
	c-0.9-0.9-1.6-1.2-1.7-1.3c-0.2-0.1-0.4,0-0.5,0.2c-0.1,0.2,0,0.4,0.2,0.5c0,0,0.7,0.4,1.6,1.3C212.6,11.9,211.1,7.6,210.8,6.7z
	 M226.3,6.7c-0.3,0.9-1.7,5.2-5.8,5.3c0.9-0.9,1.6-1.2,1.6-1.3c0.2-0.1,0.3-0.3,0.2-0.5s-0.3-0.3-0.5-0.2c-0.1,0-0.8,0.4-1.7,1.3
	C220.9,7.4,225.4,6.7,226.3,6.7L226.3,6.7z"/>
<path class="st0" d="M16.6,17.1h1.2l-2.1,7.6h10.4l2.1-7.6h1.2L25,33.6h-1.2l2.1-7.7H15.4l-2.1,7.7h-1.2L16.6,17.1z"/>
<path class="st0" d="M40.5,28c-0.1,0.3-0.1,0.5-0.1,0.8c0,2.4,1.6,4,4,4c1.8,0,2.9-0.7,4.1-1.6l0.7,0.8c-1.2,1-2.6,1.9-4.8,1.9
	c-3.1,0-5.2-2.1-5.2-5c0-3.7,3-7.5,7-7.5c3,0,4.5,2.1,4.5,4.6c0,0.8-0.1,1.5-0.3,2.1H40.5z M40.8,26.9h8.7c0.1-0.2,0.1-0.5,0.1-1
	c0-1.9-1.1-3.6-3.4-3.6C43.5,22.3,41.4,24.5,40.8,26.9z"/>
<path class="st0" d="M64.6,21.6h1.2L64.8,25c1.6-2.2,3.6-3.8,6.2-3.6l-0.3,1.3h-0.1c-2.8,0-5.7,2.2-6.7,6l-1.3,4.9h-1.2L64.6,21.6z"
	/>
<path class="st0" d="M81.6,30.5l-0.8,3.1h-1.2l4.6-17.2h1.2l-2.1,7.5c1.2-1.4,2.8-2.6,5-2.6c2.8,0,4.8,2.1,4.8,5.1
	c0,4.3-3.2,7.5-6.8,7.5C83.7,33.9,82.2,32.2,81.6,30.5z M91.9,26.5c0-2.5-1.5-4.1-3.7-4.1c-3,0-6,3-6,6.2c0,2.3,1.7,4.2,4.1,4.2
	C89.6,32.8,91.9,29.8,91.9,26.5z"/>
<path class="st0" d="M108.7,17.1h1.2l-4.1,15.4h9.7l-0.3,1.1h-10.9L108.7,17.1z"/>
<path class="st0" d="M126.8,30.5c0-2.7,2.3-4.4,5.4-4.4c1.7,0,3.4,0.4,4.6,0.7l0.1-0.3c0.1-0.4,0.2-0.9,0.2-1.2
	c0-1.8-1.3-2.8-3.6-2.8c-1.3,0-2.3,0.2-3.5,0.6l-0.2-1c1.2-0.4,2.3-0.7,3.8-0.7c2.9,0,4.7,1.4,4.7,3.7c0,0.4-0.1,1-0.2,1.6l-1.8,6.9
	H135l0.5-2.1c-1.2,1.4-2.7,2.4-4.8,2.4C128.7,33.9,126.8,32.7,126.8,30.5z M136.3,28.8l0.3-1.1c-1.2-0.3-2.8-0.6-4.5-0.6
	c-2.4,0-4,1.3-4,3.2c0,1.5,1.1,2.4,2.9,2.4C133.2,32.8,135.7,31.2,136.3,28.8z"/>
<path class="st0" d="M152.5,21.6h1.2l-0.6,2.2c1.2-1.4,2.5-2.5,4.5-2.5c2.4,0,3.9,1.5,3.9,3.8c0,0.5-0.1,1.1-0.3,1.7l-1.8,6.8h-1.2
	l1.8-6.9c0.1-0.4,0.2-1,0.2-1.5c0-1.8-1.2-2.9-3.1-2.9c-2.1,0-4.3,1.9-5,4.5l-1.8,6.8h-1.2L152.5,21.6z"/>
<path class="st0" d="M173.2,28.7c0-3.9,3.3-7.4,7.1-7.4c2.5,0,4,1.4,4.7,2.9l-1,0.5c-0.7-1.3-1.8-2.4-3.8-2.4
	c-3.1,0-5.8,2.9-5.8,6.2c0,2.7,2,4.2,4.1,4.2c1.6,0,2.8-0.7,3.9-1.7l0.8,0.8c-1.2,1.2-2.8,2.1-4.7,2.1
	C175.8,33.9,173.2,32,173.2,28.7z"/>
<path class="st0" d="M196.5,28c-0.1,0.3-0.1,0.5-0.1,0.8c0,2.4,1.6,4,4,4c1.8,0,2.9-0.7,4.1-1.6l0.7,0.8c-1.2,1-2.6,1.9-4.8,1.9
	c-3.1,0-5.2-2.1-5.2-5c0-3.7,3-7.5,7-7.5c3,0,4.5,2.1,4.5,4.6c0,0.8-0.1,1.5-0.3,2.1H196.5z M196.7,26.9h8.7c0.1-0.2,0.1-0.5,0.1-1
	c0-1.9-1.1-3.6-3.4-3.6C199.4,22.3,197.4,24.5,196.7,26.9z"/>
</svg>
