<svg id="Layer_1" data-name="Layer 1" xmlns="http://www.w3.org/2000/svg" viewBox="0 0 86.1 76.7"><path d="M85.4,56.3a26.11,26.11,0,0,0,7.7-18.5,25.7,25.7,0,0,0-7.7-18.5A26.1,26.1,0,0,0,50,17.8a26.13,26.13,0,0,0-35.3,1.6,26.07,26.07,0,0,0,0,37,2.36,2.36,0,0,0,1.6.7.9.9,0,0,0,.5-.1,8.18,8.18,0,0,0,2.1,3.6A8,8,0,0,0,24.7,63h.2a7.7,7.7,0,0,0,2.4,6,8.18,8.18,0,0,0,5.8,2.4h.2v.2a8.25,8.25,0,0,0,2.4,5.8,8,8,0,0,0,5.8,2.4h0a8.16,8.16,0,0,0,2.5,6,8.57,8.57,0,0,0,6,2.5,8.32,8.32,0,0,0,6-2.5,2.09,2.09,0,0,0,.4-.6L85.2,56.3C85.2,56.4,85.3,56.3,85.4,56.3ZM11.5,37.9A21.51,21.51,0,0,1,33.1,16.3a21.39,21.39,0,0,1,15.3,6.3h0l9.1,9.1h0a4.95,4.95,0,0,1-7,7h0l-.6-.7h0l-8.4-8.4h0l-6.3-6.3A2.26,2.26,0,1,0,32,26.5l4.7,4.7L18.9,48.9a8.25,8.25,0,0,0-2,3.2A21.31,21.31,0,0,1,11.5,37.9ZM22.1,57.4a3.62,3.62,0,0,1,0-5.2L39.9,34.4l5.2,5.2L27.3,57.4A3.74,3.74,0,0,1,22.1,57.4ZM47.3,82.7a4,4,0,0,1-.7-4.5,5.72,5.72,0,0,0,.8-.7L66.8,58.1a2.26,2.26,0,1,0-3.2-3.2L45,73.4a2.66,2.66,0,0,0-1,.6c-.3.3-.5.6-.8.9a4,4,0,0,1-4.4-.6,3.62,3.62,0,0,1,0-5.2L58.2,49.7A2.26,2.26,0,0,0,55,46.5L35.8,65.8a3.68,3.68,0,0,1-5.2-5.2L48.5,42.7a9.45,9.45,0,0,0,12.4-.9,9.48,9.48,0,0,0,0-13.4h0L53.3,21a21.63,21.63,0,0,1,29,32l-.1.1L52.6,82.7c-.1.1-.2.3-.3.4A3.93,3.93,0,0,1,47.3,82.7Z" transform="translate(-7 -11.6)"/></svg>