<svg id="Layer_1" data-name="Layer 1" xmlns="http://www.w3.org/2000/svg" viewBox="0 0 42 42"><path d="M32,11A21,21,0,0,0,11,32V52a1,1,0,0,0,1,1H32a21,21,0,0,0,0-42Zm0,40H13V32A19,19,0,1,1,32,51Z" transform="translate(-11 -11)"/><path d="M41.39,25H22.61a1,1,0,0,0,0,2H41.39a1,1,0,0,0,0-2Z" transform="translate(-11 -11)"/><path d="M41.39,31H22.61a1,1,0,0,0,0,2H41.39a1,1,0,0,0,0-2Z" transform="translate(-11 -11)"/><path d="M35.4,37H22.6a1,1,0,0,0,0,2H35.4a1,1,0,1,0,0-2Z" transform="translate(-11 -11)"/></svg>