<svg id="Layer_1" data-name="Layer 1" xmlns="http://www.w3.org/2000/svg" viewBox="0 0 32 34.1"><path d="M16.9,27.1a9.52,9.52,0,0,1-9.3-7.6l1.5-.3a7.94,7.94,0,0,0,7.8,6.4A8,8,0,0,0,18.7,9.8L19,8.4a9.46,9.46,0,0,1-2.1,18.7Z"/><path d="M14.5,15.4l-3.6-3.1L20.3,1.7l3.6,3.1ZM13,12.1l1.3,1.2,7.4-8.4L20.4,3.7Z"/><rect x="21.31" y="2.22" width="2.3" height="1.5" transform="translate(5.35 17.82) rotate(-48.51)"/><rect x="11.39" y="13.31" width="2.1" height="1.5" transform="translate(-6.34 14.06) rotate(-48.51)"/><rect x="22.48" y="0.87" width="1.5" height="2.6" transform="translate(6.62 18.55) rotate(-49.92)"/><rect x="5.6" y="18.7" width="6.3" height="1.5"/><path d="M26.4,31.2H7.4l2.2-5.6H24.2ZM9.6,29.7H24.2l-1-2.6H10.6Z"/></svg>