<?xml version="1.0" encoding="utf-8"?>
<!-- Generator: Adobe Illustrator 25.0.0, SVG Export Plug-In . SVG Version: 6.00 Build 0)  -->
<svg version="1.1" id="Layer_1" xmlns="http://www.w3.org/2000/svg" xmlns:xlink="http://www.w3.org/1999/xlink" x="0px" y="0px"
	 viewBox="0 0 82.3 61.4" style="enable-background:new 0 0 82.3 61.4;" xml:space="preserve">
<g>
	<g>
		<path d="M76.7,7.1h-4.8c0,0-0.1,0-0.1,0V3.3c0-0.7-0.5-1.2-1.2-1.2c-18.5,0-27.1,4.1-29.5,5.5c-2.4-1.4-11-5.5-29.5-5.5
			c-0.7,0-1.2,0.5-1.2,1.2v3.8c0,0-0.1,0-0.1,0H5.5c-0.7,0-1.2,0.5-1.2,1.2v46.6c0,0.7,0.5,1.2,1.2,1.2h21.2c0.7,0,1.2-0.5,1.2-1.2
			c0-0.7-0.5-1.2-1.2-1.2h-20V9.5h3.6c0,0,0.1,0,0.1,0V48c0,0.7,0.5,1.2,1.2,1.2c20.8,0,28.7,5.4,28.8,5.5c0,0,0.1,0,0.1,0.1
			c0,0,0,0,0.1,0c0,0,0.1,0,0.1,0c0.1,0.1,0.3,0.1,0.4,0.1l0,0c0,0,0,0,0,0c0,0,0,0,0,0c0.1,0,0.3,0,0.4-0.1c0,0,0.1,0,0.1,0
			c0,0,0.1,0,0.1-0.1c0,0,0.1,0,0.1-0.1c0.1-0.1,7.9-5.5,28.8-5.5c0.7,0,1.2-0.5,1.2-1.2V9.5c0,0,0.1,0,0.1,0h3.6v44.2H53.1
			c-0.7,0-1.2,0.5-1.2,1.2c0,0.7,0.5,1.2,1.2,1.2h23.6c0.7,0,1.2-0.5,1.2-1.2V8.3C77.9,7.6,77.4,7.1,76.7,7.1z M12.8,4.5
			C30,4.7,38,8.6,39.9,9.7v41.9c-3.4-1.7-11.7-4.7-27.1-4.9V4.5z M69.4,46.8C54,46.9,45.8,50,42.3,51.6V9.7c1.9-1.1,9.8-5,27.1-5.2
			V46.8z"/>
		<path d="M19.3,15.5c5.7,0.4,10.7,1.3,14.9,2.6c0.1,0,0.2,0.1,0.4,0.1c0.5,0,1-0.3,1.1-0.8c0.2-0.6-0.2-1.3-0.8-1.5
			c-4.4-1.4-9.6-2.3-15.4-2.7c-0.7,0-1.2,0.5-1.3,1.1C18.1,14.9,18.6,15.5,19.3,15.5z"/>
		<path d="M34.9,23.3c-4.4-1.4-9.6-2.3-15.4-2.7c-0.7,0-1.2,0.5-1.3,1.1c0,0.7,0.5,1.2,1.1,1.3c5.7,0.4,10.7,1.3,14.9,2.6
			c0.1,0,0.2,0.1,0.4,0.1c0.5,0,1-0.3,1.1-0.8C35.9,24.1,35.5,23.5,34.9,23.3z"/>
		<path d="M34.9,30.7c-4.4-1.4-9.6-2.3-15.4-2.7c-0.7,0-1.2,0.5-1.3,1.1c0,0.7,0.5,1.2,1.1,1.3C25,30.9,30,31.7,34.2,33
			c0.1,0,0.2,0.1,0.4,0.1c0.5,0,1-0.3,1.1-0.8C35.9,31.6,35.5,30.9,34.9,30.7z"/>
		<path d="M34.9,38.2c-4.4-1.4-9.6-2.3-15.4-2.7c-0.7,0-1.2,0.5-1.3,1.1c0,0.7,0.5,1.2,1.1,1.3c5.7,0.4,10.7,1.3,14.9,2.6
			c0.1,0,0.2,0.1,0.4,0.1c0.5,0,1-0.3,1.1-0.8C35.9,39.1,35.5,38.4,34.9,38.2z"/>
		<path d="M47.7,18.1c0.1,0,0.2,0,0.4-0.1c4.2-1.3,9.2-2.2,14.9-2.6c0.7,0,1.2-0.6,1.1-1.3c0-0.7-0.6-1.1-1.3-1.1
			c-5.8,0.4-11,1.3-15.4,2.7c-0.6,0.2-1,0.9-0.8,1.5C46.7,17.8,47.2,18.1,47.7,18.1z"/>
		<path d="M47.7,25.6c0.1,0,0.2,0,0.4-0.1c4.2-1.3,9.2-2.2,14.9-2.6c0.7,0,1.2-0.6,1.1-1.3c0-0.7-0.6-1.1-1.3-1.1
			c-5.8,0.4-11,1.3-15.4,2.7c-0.6,0.2-1,0.9-0.8,1.5C46.7,25.3,47.2,25.6,47.7,25.6z"/>
		<path d="M47.7,33.1c0.1,0,0.2,0,0.4-0.1c4.2-1.3,9.2-2.2,14.9-2.6c0.7,0,1.2-0.6,1.1-1.3c0-0.7-0.6-1.1-1.3-1.1
			c-5.8,0.4-11,1.3-15.4,2.7c-0.6,0.2-1,0.9-0.8,1.5C46.7,32.8,47.2,33.1,47.7,33.1z"/>
		<path d="M62.8,35.5c-5.8,0.4-11,1.3-15.4,2.7c-0.6,0.2-1,0.9-0.8,1.5c0.2,0.5,0.6,0.8,1.1,0.8c0.1,0,0.2,0,0.4-0.1
			c4.2-1.3,9.2-2.2,14.9-2.6c0.7,0,1.2-0.6,1.1-1.3C64,36,63.5,35.5,62.8,35.5z"/>
	</g>
</g>
</svg>
