<svg id="Layer_1" data-name="Layer 1" xmlns="http://www.w3.org/2000/svg" viewBox="0 0 15.5 18.08"><path d="M11.55.79a9.21,9.21,0,0,1,4.63,7.72A8.49,8.49,0,0,1,15,12.75a8.94,8.94,0,0,1-7.66,4.37v1.3H9.72a.21.21,0,0,1,.22.21.22.22,0,0,1-.22.22H4.56a.22.22,0,0,1-.22-.22.21.21,0,0,1,.22-.21H6.93v-1.3a8.7,8.7,0,0,1-4-1.1.23.23,0,0,1-.1-.31.23.23,0,0,1,.32-.06,8.28,8.28,0,0,0,4,1,8.52,8.52,0,0,0,7.51-4.17,8.06,8.06,0,0,0,1.1-4,8.79,8.79,0,0,0-4.41-7.35.21.21,0,0,1-.1-.25.2.2,0,0,1,.31-.12ZM7.34,1.87l.48,0A6.66,6.66,0,1,1,4,2.76a6.76,6.76,0,0,1,3.32-.89Zm0,.43A6.24,6.24,0,0,0,4.46,3L6.31,4.16A6.89,6.89,0,0,1,8.08,2.92a4.44,4.44,0,0,1,1.09-.35,5.9,5.9,0,0,0-1.38-.26Zm.92,1A6.76,6.76,0,0,0,6.7,4.39l2,1.22L10.11,3A3.25,3.25,0,0,0,8.26,3.31Zm2.24-.12L9.06,5.83,11,7a7.9,7.9,0,0,0,.14-.8C11.14,5.21,11.28,3.81,10.5,3.19ZM4,3.27A6.1,6.1,0,0,0,2.16,5.09L4.5,6.53l.26-.46A9.82,9.82,0,0,1,6,4.47Zm7.41.54a5.51,5.51,0,0,1,.14,2.45,9.44,9.44,0,0,1-.18,1L13.6,8.59a6.18,6.18,0,0,0-.84-3.17,6,6,0,0,0-1.33-1.61Zm-5.06.9A9.23,9.23,0,0,0,5.13,6.29c-.09.16-.18.31-.26.47l2.4,1.48L8.49,6Zm-4.44.74A6.45,6.45,0,0,0,1.13,8L3.37,9.36a11.85,11.85,0,0,1,.92-2.45Zm6.93.76L7.64,8.47l2.3,1.41a11.78,11.78,0,0,0,1-2.43Zm-4.2.93a11.48,11.48,0,0,0-.9,2.46l2.09,1.28L7.07,8.62Zm6.62.55a11.54,11.54,0,0,1-1,2.42l2.47,1.52a6.2,6.2,0,0,0,.8-2.54ZM1.11,8.5A6.14,6.14,0,0,0,2,11.66a6.28,6.28,0,0,0,1.34,1.63,5.92,5.92,0,0,1-.18-2.56,8.48,8.48,0,0,1,.16-.92Zm6.33.34L6.22,11.1l2,1.21a11.53,11.53,0,0,0,1.52-2.05ZM3.66,10.06c-.05.25-.09.49-.12.73,0,1-.1,2.43.67,3.11l1.43-2.64Zm6.44.43a11.09,11.09,0,0,1-1.51,2l2.1,1.28A6.14,6.14,0,0,0,12.56,12ZM6,11.48l-1.41,2.6a3.15,3.15,0,0,0,1.8-.39,7,7,0,0,0,1.48-1.07Zm2.25,1.37a7.23,7.23,0,0,1-1.65,1.21,4.7,4.7,0,0,1-1.17.44,6.24,6.24,0,0,0,4.81-.43Z" transform="translate(-0.68 -0.76)"/></svg>