<svg id="Layer_1" data-name="Layer 1" xmlns="http://www.w3.org/2000/svg" viewBox="0 0 82.31 90.83"><path d="M78,95.83c-1.78-4.73-5-28-2.2-32.25l.51-.77C83.58,51.7,85.79,48.35,85.79,37,85.79,26,76.08,8.59,50,8.59c-19.21,0-29.2,7.74-30.53,23.65-.11,1.35,0,3.73,0,6,.15,5.83.13,8.52-.62,9.88-1.11,2.73-3.75,5.52-5.88,7.78-.65.69-1.47,1.56-2,2.17.49.31,1.18.67,1.7.94,2,1.06,3.91,2.06,4.55,3.66.43,1.07.1,2.31-.5,4.22a.19.19,0,0,1,0,.07c2.45.64,3,1.54,3.09,2.36a2.2,2.2,0,0,1-1.28,2.33l-.16.07a2.94,2.94,0,0,0-.57.31c1.45.93,3.61,2.61,3.81,4.53a2.81,2.81,0,0,1-.82,2.34c-1.13,1.49-1,2.58-.71,3.15a2.68,2.68,0,0,1,.74.46c2.29,2,6.48,2.57,11.81,1.65,15-2.68,15.55-12,15.57-12.36V59.92h3.59v12c0,.56-.55,12.62-18.54,15.84-4.29.74-10.09,1-14.09-1.93a2.52,2.52,0,0,1-1.54-1c-1.16-1.34-2.37-4.53.28-8.06a10.73,10.73,0,0,0-2.62-2.06l-.34-.2-.23-.31a3.66,3.66,0,0,1-.52-3,3.18,3.18,0,0,1,.39-.89,1.93,1.93,0,0,1-1.07-.43c-1.16-.94-.74-2.31-.2-4a15,15,0,0,0,.52-1.92,15.84,15.84,0,0,0-2.81-1.71C8.82,61,6.89,60,7.08,58.09c.12-1.21,1.1-2.3,3.3-4.63,1.95-2.07,4.38-4.64,5.19-6.76l.21-.38c.3-.79.19-5.28.12-8-.06-2.51-.12-4.88,0-6.42C17.4,14.06,28.88,5,50,5,78.7,5,89.38,24.64,89.38,37S86.62,53.6,79.26,64.79l-.5.76c-1.64,2.65.47,25,2.43,30.25Z" transform="translate(-7.07 -5)"/></svg>