<svg id="Layer_1" data-name="Layer 1" xmlns="http://www.w3.org/2000/svg" viewBox="0 0 22.74 16"><path d="M24.77,4.66a1,1,0,0,0-.91-.37c-1.41.13-8.48,1.18-9.33,7.81a.78.78,0,0,0,.07.47c-.3.34-.6.71-.91,1.11-.3-.4-.6-.77-.91-1.11a1.1,1.1,0,0,0,.07-.47C12,5.47,4.94,4.42,3.52,4.29a1.06,1.06,0,0,0-.91.37,1,1,0,0,0-.2.94h0c.41,1.31,2.6,7.74,8.82,7.74a4.09,4.09,0,0,0,.61,0,.68.68,0,0,0,.27-.07,14.3,14.3,0,0,1,1,1.28,17,17,0,0,0-2.26,5.16.51.51,0,0,0,.37.6h.14a.49.49,0,0,0,.5-.37,15.93,15.93,0,0,1,3.54-6.67,1.5,1.5,0,0,0,.27.07c.2,0,.4,0,.61,0,6.23,0,8.41-6.43,8.82-7.74h0A1.72,1.72,0,0,0,24.77,4.66ZM3.39,5.33l-.47.14.5-.17c1.21.13,7.11,1,8.29,6.16A11.11,11.11,0,0,0,9.45,9.78a.49.49,0,0,0-.47.87,12.11,12.11,0,0,1,2.19,1.68C5.71,12.3,3.73,6.51,3.39,5.33ZM24,5.33c-.34,1.18-2.33,6.94-7.75,7a12.68,12.68,0,0,1,2.19-1.68A.49.49,0,0,0,18,9.78a11.12,11.12,0,0,0-2.26,1.68c1.11-5.19,7-6.06,8.29-6.13Z" transform="translate(-2.37 -4.28)"/></svg>